<?xml version="1.0" standalone="no"?>
<!DOCTYPE svg PUBLIC "-//W3C//DTD SVG 20010904//EN"
 "http://www.w3.org/TR/2001/REC-SVG-20010904/DTD/svg10.dtd">
<svg version="1.0" xmlns="http://www.w3.org/2000/svg"
 width="1000.000000pt" height="1000.000000pt" viewBox="0 0 1000.000000 1000.000000"
 preserveAspectRatio="xMidYMid meet">
<metadata>
Created by potrace 1.11, written by Peter Selinger 2001-2013
</metadata>
<g transform="translate(0.000000,1000.000000) scale(0.100000,-0.100000)"
fill="#000000" stroke="none">
<path d="M9890 9104 c-81 -25 -164 -51 -365 -112 -71 -22 -197 -61 -280 -87
-82 -26 -154 -48 -160 -49 -5 -2 -17 -6 -25 -9 -21 -8 -251 -78 -272 -82 -9
-2 -26 -9 -37 -15 -12 -6 -21 -8 -21 -5 0 2 -17 -1 -37 -9 -21 -8 -85 -28
-143 -46 -125 -38 -325 -99 -470 -145 -88 -28 -179 -55 -200 -60 -3 0 -59 -18
-125 -39 -66 -21 -178 -55 -250 -77 -71 -22 -159 -49 -195 -61 -36 -11 -69
-21 -75 -22 -5 -2 -44 -13 -85 -26 -41 -14 -77 -25 -80 -25 -31 -8 -67 -19
-75 -24 -5 -3 -15 -6 -22 -7 -6 -1 -47 -13 -90 -27 -73 -24 -219 -68 -235 -73
-5 -1 -9 -2 -10 -4 -2 -1 -10 -3 -18 -5 -15 -2 -227 -67 -280 -85 -14 -4 -72
-22 -130 -40 -58 -18 -112 -34 -120 -38 -8 -3 -20 -6 -26 -7 -6 -2 -51 -15
-100 -31 -49 -15 -91 -29 -94 -29 -8 -1 -146 -44 -235 -73 -44 -14 -82 -27
-85 -27 -20 -5 -107 -31 -165 -50 -38 -12 -115 -36 -170 -53 -55 -17 -111 -34
-125 -38 -14 -5 -28 -9 -32 -10 -5 -1 -9 -2 -10 -4 -2 -1 -10 -3 -18 -5 -24
-5 -202 -62 -232 -74 -16 -6 -28 -9 -28 -6 0 2 -16 -3 -35 -11 -19 -8 -35 -12
-35 -9 0 3 -10 0 -22 -6 -13 -7 -36 -16 -53 -20 -16 -4 -74 -21 -127 -37 -54
-17 -98 -27 -98 -23 0 3 -4 1 -8 -4 -6 -9 -86 -38 -102 -37 -3 0 -20 -6 -37
-13 -18 -8 -33 -12 -33 -10 0 2 -17 -3 -37 -12 -21 -8 -39 -14 -41 -13 -2 1
-15 -2 -30 -8 -15 -6 -67 -22 -117 -37 -49 -15 -125 -39 -168 -52 -43 -14 -84
-26 -90 -27 -16 -3 -271 -82 -327 -102 -25 -8 -53 -17 -64 -19 -10 -3 -71 -21
-134 -41 -64 -20 -121 -37 -127 -38 -9 -2 -133 -41 -327 -103 -42 -13 -86 -25
-97 -26 -12 -1 -21 -5 -21 -10 0 -5 -7 -7 -15 -4 -8 4 -17 2 -20 -3 -4 -6 -17
-10 -31 -10 -13 0 -24 -4 -24 -8 0 -5 -6 -9 -12 -9 -12 0 -144 -37 -178 -50
-16 -7 -33 -11 -52 -16 -7 -1 -19 -6 -26 -11 -7 -4 -16 -5 -19 -2 -3 3 -11 2
-17 -2 -6 -5 -38 -17 -71 -26 -33 -10 -67 -20 -75 -23 -20 -8 -30 -11 -59 -17
-12 -3 -28 -9 -35 -14 -6 -5 -20 -8 -31 -6 -11 1 -28 -4 -37 -13 -10 -9 -18
-13 -18 -10 0 3 -19 -1 -42 -9 -24 -9 -50 -17 -58 -19 -53 -11 -76 -19 -87
-27 -7 -5 -17 -7 -23 -3 -5 3 -10 1 -10 -6 0 -7 -3 -10 -6 -7 -3 4 -21 0 -40
-8 -18 -8 -37 -13 -41 -12 -5 0 -17 -2 -28 -6 -55 -21 -91 -34 -100 -36 -5 -1
-14 -4 -20 -6 -5 -1 -44 -12 -85 -24 -41 -12 -79 -23 -85 -24 -5 -2 -12 -4
-15 -4 -3 -1 -32 -11 -65 -22 -33 -11 -60 -20 -60 -20 0 1 -12 -3 -26 -9 -15
-5 -43 -13 -63 -16 -20 -4 -39 -11 -42 -16 -3 -5 -9 -7 -14 -4 -4 3 -21 -2
-36 -10 -16 -8 -34 -15 -41 -15 -7 0 -33 -7 -59 -16 -25 -8 -54 -16 -65 -17
-10 -1 -19 -4 -19 -8 0 -4 -14 -9 -30 -12 -31 -6 -45 -10 -70 -20 -56 -21
-114 -36 -121 -31 -5 3 -9 0 -9 -5 0 -6 -3 -10 -7 -9 -5 1 -39 -9 -78 -21 -91
-29 -106 -33 -132 -35 -11 0 -19 -4 -17 -7 3 -6 -57 -22 -72 -19 -4 1 -10 -3
-13 -8 -3 -6 -19 -12 -36 -13 -16 -2 -32 -7 -35 -11 -3 -4 -17 -9 -32 -12 -14
-2 -35 -9 -45 -14 -19 -10 -24 -12 -45 -12 -58 -1 -37 -23 835 -893 l876 -875
55 33 c30 18 57 30 60 27 3 -3 6 -1 6 4 0 6 16 16 35 24 19 8 35 17 35 20 0 4
12 12 28 19 15 7 38 20 52 29 14 9 27 17 30 17 8 1 65 39 71 48 3 5 9 8 13 7
4 -1 66 33 139 76 73 43 143 84 157 92 14 7 43 24 65 38 22 14 48 27 58 31 9
3 17 9 17 14 0 5 7 9 15 9 8 0 15 5 15 12 0 6 3 9 6 5 6 -5 57 23 130 71 10 7
27 15 37 18 9 4 17 10 17 15 0 5 3 8 8 7 4 -2 32 13 62 32 30 19 58 34 62 35
4 0 16 8 28 17 11 10 20 16 20 13 0 -7 84 48 88 58 2 4 7 5 11 2 5 -2 23 7 41
20 19 14 39 25 46 25 7 0 14 3 16 8 4 9 57 41 81 49 9 3 17 10 17 15 0 5 4 6
10 3 5 -3 10 -1 10 4 0 6 5 11 11 11 5 0 26 11 46 25 20 13 40 22 45 19 4 -3
8 -1 8 5 0 6 19 20 43 32 23 12 49 27 57 34 8 8 17 13 20 13 3 -1 24 11 47 25
24 15 47 27 53 27 5 0 10 5 10 11 0 5 5 7 10 4 6 -3 10 -1 10 4 0 6 7 11 15
11 8 0 15 4 15 9 0 8 37 24 53 22 4 -1 7 3 7 8 0 5 16 16 35 25 19 9 35 21 35
26 0 6 3 9 8 8 8 -2 63 27 127 67 22 14 49 29 61 34 11 5 56 30 100 56 43 26
104 61 134 78 30 17 57 34 58 39 2 4 9 8 16 8 6 0 34 15 61 33 28 17 67 41 88
52 20 11 37 23 37 27 0 5 9 8 20 8 11 0 20 5 20 11 0 5 5 7 10 4 6 -3 13 1 16
9 3 9 10 16 15 16 4 0 31 13 59 30 27 16 50 26 50 22 0 -4 5 1 11 11 5 9 14
17 20 17 5 0 35 16 65 35 30 19 58 35 63 35 4 0 19 8 32 18 13 10 44 30 69 43
25 13 47 27 48 32 2 4 7 7 12 7 12 0 134 72 142 85 4 5 8 7 8 3 0 -6 103 51
125 70 6 4 25 15 43 22 17 8 32 18 32 21 0 4 12 12 28 18 15 6 45 22 67 36 22
14 58 35 80 46 22 12 42 24 45 28 3 3 19 13 35 21 17 8 32 18 35 21 3 3 30 19
60 36 91 50 134 76 152 90 9 8 24 16 33 17 9 1 20 7 23 12 4 5 20 16 37 24 16
8 65 36 107 63 43 26 80 47 83 47 3 0 23 11 45 25 22 14 40 23 40 20 0 -3 8 2
18 11 21 19 391 234 403 234 5 0 9 4 9 9 0 5 8 11 18 14 9 4 40 20 67 37 28
17 59 35 70 40 11 6 34 19 50 30 37 23 176 104 190 109 6 2 12 7 15 10 3 3 15
12 28 19 12 6 32 18 45 25 12 6 24 15 27 18 3 3 19 12 35 21 17 8 109 61 205
118 96 56 196 115 222 129 25 14 94 54 151 89 58 34 110 62 116 62 6 0 11 5
11 10 0 6 4 10 10 10 5 0 34 16 64 35 30 19 60 35 66 35 5 0 10 4 10 8 0 4 15
15 33 23 17 9 99 55 180 103 81 48 155 90 165 93 9 4 19 9 22 13 3 4 120 73
260 155 140 81 271 158 290 170 37 24 99 61 162 95 21 11 78 45 128 75 101 61
121 66 33 8 -32 -21 -59 -41 -61 -45 -2 -5 -7 -8 -11 -8 -8 0 -736 -480 -758
-499 -7 -6 -14 -11 -17 -11 -6 0 -98 -61 -106 -69 -9 -10 -45 -31 -62 -37 -10
-4 -18 -9 -18 -13 0 -4 -22 -20 -50 -36 -27 -16 -50 -33 -50 -37 0 -4 -4 -8
-9 -8 -9 0 -372 -237 -398 -260 -7 -5 -14 -10 -17 -10 -2 0 -61 -38 -131 -85
-69 -47 -130 -85 -136 -85 -5 0 -9 -3 -9 -7 0 -5 -23 -21 -51 -38 -28 -16 -56
-34 -62 -40 -7 -5 -37 -26 -67 -46 -30 -20 -205 -136 -388 -258 -183 -121
-337 -221 -343 -221 -5 0 -9 -4 -9 -9 0 -5 -13 -14 -30 -21 -16 -7 -30 -16
-30 -20 0 -4 -13 -13 -30 -20 -16 -7 -30 -16 -30 -20 0 -3 -12 -13 -27 -21
-40 -20 -147 -93 -151 -101 -2 -5 -8 -8 -13 -8 -5 0 -59 -34 -120 -75 -61 -41
-113 -75 -115 -75 -3 0 -14 -9 -26 -20 -12 -11 -28 -20 -35 -20 -7 0 -13 -4
-13 -10 0 -5 -7 -10 -15 -10 -8 0 -15 -4 -15 -10 0 -5 -16 -16 -35 -25 -19 -9
-39 -23 -46 -31 -6 -8 -18 -14 -25 -14 -8 0 -14 -4 -14 -10 0 -5 -7 -10 -15
-10 -8 0 -15 -4 -15 -10 0 -5 -5 -10 -11 -10 -6 0 -17 -7 -26 -15 -8 -8 -19
-13 -24 -10 -5 4 -9 1 -9 -5 0 -6 -8 -14 -17 -17 -10 -4 -27 -15 -37 -25 -11
-10 -25 -18 -32 -18 -6 0 -14 -7 -18 -15 -3 -8 -12 -15 -21 -15 -8 0 -15 -4
-15 -9 0 -5 -20 -20 -45 -32 -25 -12 -45 -26 -45 -31 0 -4 -7 -8 -15 -8 -7 0
-18 -6 -22 -12 -4 -7 -24 -22 -43 -32 -19 -11 -39 -24 -45 -28 -25 -21 -87
-58 -95 -58 -6 0 -10 -5 -10 -10 0 -6 -10 -15 -22 -20 -29 -13 -56 -30 -82
-52 -11 -10 -32 -24 -48 -30 -15 -7 -28 -16 -28 -20 0 -5 -7 -8 -15 -8 -8 0
-15 -4 -15 -10 0 -5 -6 -10 -14 -10 -8 0 -16 -3 -18 -7 -5 -11 -97 -73 -108
-73 -6 0 -10 -4 -10 -10 0 -5 -11 -12 -25 -16 -14 -3 -22 -10 -19 -15 3 -5 -4
-9 -15 -9 -10 0 -21 -3 -23 -7 -5 -13 -76 -63 -87 -63 -6 0 -11 -5 -11 -11 0
-5 -4 -8 -9 -5 -5 4 -11 3 -13 -1 -4 -11 -266 -183 -277 -183 -5 0 -11 -3 -13
-8 -5 -11 -107 -82 -118 -82 -6 0 -10 -5 -10 -11 0 -5 -4 -8 -9 -4 -6 3 -13 0
-18 -8 -7 -11 -52 -44 -78 -57 -24 -12 -131 -86 -137 -95 -5 -7 -8 -7 -8 0 0
7 -3 7 -8 0 -11 -16 -130 -95 -142 -95 -5 0 -10 -3 -10 -7 0 -5 -29 -26 -65
-48 -36 -22 -65 -43 -65 -48 0 -4 -4 -5 -10 -2 -5 3 -10 1 -10 -5 0 -6 -4 -8
-10 -5 -5 3 -10 2 -10 -4 0 -5 -27 -26 -61 -46 -33 -19 -68 -42 -76 -50 -8 -8
-18 -15 -23 -15 -5 0 -15 -6 -22 -13 -7 -7 -34 -26 -60 -41 -25 -15 -52 -33
-58 -41 -7 -8 -16 -12 -21 -9 -5 3 -9 1 -9 -3 0 -5 -22 -22 -50 -38 -27 -16
-50 -33 -50 -37 0 -4 -6 -8 -13 -8 -7 0 -22 -9 -34 -19 -11 -10 -33 -26 -49
-34 -16 -8 -39 -25 -51 -37 -13 -11 -23 -18 -23 -14 0 3 -15 -5 -34 -20 -19
-14 -37 -26 -41 -26 -6 0 -16 -8 -54 -40 -10 -8 -24 -16 -32 -18 -7 -2 -16 -7
-19 -10 -9 -12 -148 -103 -185 -121 -11 -5 -33 -21 -49 -35 -16 -14 -32 -23
-37 -21 -4 3 -14 -4 -22 -15 -7 -11 -17 -17 -20 -13 -4 3 -7 1 -7 -5 0 -6 -10
-14 -22 -18 -12 -3 -31 -15 -42 -26 -12 -11 -38 -28 -58 -39 -21 -11 -38 -24
-38 -30 0 -6 -4 -8 -9 -5 -4 3 -16 -3 -26 -14 -10 -11 -23 -20 -28 -20 -6 0
-25 -11 -43 -25 -18 -14 -35 -25 -38 -25 -6 0 -99 -62 -106 -71 -3 -4 -20 -15
-38 -26 l-33 -20 1182 -1182 1182 -1182 24 25 c12 14 23 28 23 31 0 4 6 12 13
19 6 8 19 24 27 36 8 12 20 28 25 34 6 6 26 34 45 61 18 28 44 64 57 80 35 44
36 47 63 85 13 19 27 37 30 40 3 3 19 25 35 49 17 25 40 56 53 69 12 14 22 28
22 32 0 4 11 20 25 36 14 16 25 32 25 36 0 4 11 20 25 35 40 45 45 52 45 58 0
4 6 13 13 20 26 30 37 44 37 49 0 6 26 39 52 68 10 10 15 18 10 18 -4 0 2 7
12 15 11 8 17 15 13 15 -4 0 10 22 30 48 21 27 47 61 58 76 11 16 26 34 33 42
7 8 11 14 8 14 -6 0 15 28 42 55 6 8 12 16 12 20 0 5 60 86 93 125 6 8 11 16
10 17 -2 2 4 11 13 21 17 19 60 77 84 112 8 12 20 28 27 35 7 7 9 15 6 19 -4
3 -2 6 4 6 5 0 36 38 68 85 32 47 63 85 68 85 6 0 8 3 4 6 -3 4 -1 12 6 19 7
7 20 23 29 36 9 13 37 52 62 87 25 34 46 67 46 73 0 5 4 8 9 5 5 -3 14 8 20
24 5 17 14 30 19 30 5 0 15 13 22 30 7 16 16 27 21 24 5 -3 9 1 9 9 0 8 9 22
20 32 11 10 20 24 20 32 0 7 3 13 8 13 4 0 22 23 41 50 19 28 38 50 43 50 5 0
7 4 4 8 -3 5 6 20 20 35 13 14 24 29 24 32 0 4 6 13 13 20 19 22 31 37 57 75
13 19 29 38 35 42 6 5 6 8 0 8 -6 0 -5 3 1 8 6 4 62 77 124 162 62 85 117 158
124 162 6 4 7 8 3 8 -5 0 9 21 30 48 21 26 64 82 93 125 30 43 67 92 82 110
15 18 28 35 28 38 0 5 13 22 50 66 5 7 10 15 10 19 0 3 14 23 30 43 35 42 33
38 84 114 22 31 43 57 48 57 4 0 8 6 8 13 0 6 22 40 48 74 26 34 72 96 102
139 30 42 60 82 65 88 6 6 26 34 45 61 19 28 40 56 47 63 7 8 18 23 24 35 12
22 24 37 52 68 9 10 14 19 11 19 -3 0 1 6 8 14 7 7 20 24 28 36 8 12 22 30 30
40 8 10 22 28 30 40 8 12 22 30 30 40 8 10 22 28 30 40 8 12 44 62 80 110 36
49 72 99 80 111 8 12 25 34 38 49 12 15 22 31 22 34 0 8 16 28 44 56 11 11 16
20 12 20 -4 0 3 10 14 23 12 12 29 34 38 50 9 15 20 27 24 27 4 0 8 5 8 11 0
6 6 17 13 24 19 22 30 37 57 77 14 21 28 38 33 38 4 0 7 5 7 10 0 11 10 24 43
61 9 10 17 22 17 25 0 6 47 70 73 98 9 11 17 23 17 27 0 5 66 97 98 135 5 5
22 29 37 52 15 23 32 42 36 42 5 0 9 5 9 12 0 6 17 34 39 62 69 91 236 320
271 371 19 27 40 56 47 65 7 8 60 80 117 160 58 80 112 152 120 161 9 9 16 19
16 22 0 4 7 15 15 24 12 15 222 303 577 792 46 62 89 119 96 127 6 7 12 15 12
18 0 3 7 14 15 23 7 10 53 72 101 138 129 178 194 266 225 307 45 57 43 58
-71 22z"/>
<path d="M2006 3657 c2 -23 6 -58 9 -77 3 -19 7 -60 10 -90 4 -30 8 -66 11
-80 2 -14 7 -43 10 -65 2 -22 7 -53 9 -70 3 -16 7 -52 11 -80 3 -27 9 -67 14
-87 4 -22 4 -38 -1 -38 -5 0 -5 -7 0 -17 5 -10 15 -58 21 -108 7 -49 13 -99
15 -110 1 -11 6 -47 9 -80 4 -33 9 -71 11 -85 3 -14 7 -41 10 -60 2 -19 9 -69
15 -110 5 -41 12 -93 15 -115 3 -22 10 -76 16 -120 6 -44 12 -93 14 -110 7
-54 14 -104 19 -137 3 -18 8 -58 12 -88 3 -30 8 -66 10 -80 3 -23 7 -54 19
-147 2 -17 6 -49 10 -71 6 -45 14 -102 20 -152 2 -19 6 -46 9 -60 2 -14 7 -47
10 -75 3 -27 10 -73 14 -102 5 -28 8 -66 8 -82 -1 -17 2 -31 5 -31 3 0 6 -6 6
-12 0 -7 3 -40 8 -73 4 -33 9 -78 11 -99 2 -22 7 -42 10 -45 5 -6 83 75 338
353 15 17 54 58 85 92 31 33 99 107 151 164 52 56 109 117 125 135 17 18 64
69 105 114 41 46 95 104 120 130 82 87 155 166 196 213 l41 48 -603 607 c-332
335 -604 608 -604 609 0 0 -74 75 -164 167 l-165 165 5 -41z"/>
</g>
</svg>
