<svg version="1.1" viewBox="0 0 132.29137 54.229304" xmlns="http://www.w3.org/2000/svg"><g fill="#6d93cb" fill-rule="evenodd" stroke-width="2.2655"><path d="m122.82 25.206h-5.1933v-20.471h4.8877v2.2927c0.61097-1.3764 2.1384-2.5983 4.1258-2.7494 3.3602-0.15442 5.6498 1.8329 5.6498 6.1097v14.818h-5.3444v-15.429c0-1.8329 0-3.3602-1.2219-3.6659-0.4599-0.15107-1.2219 0-1.8329 0.45655-0.76539 0.76539-1.0709 1.6818-1.0709 3.2093z"/><path d="m34.528 6.1124c-1.2219-1.0709-2.7494-1.8329-4.5823-1.8329-1.8329 0-3.2093 0.76203-4.5823 1.8329-2.1384 1.8329-3.5147 5.1933-3.5147 8.8591 0 3.8201 1.3764 7.0261 3.5147 8.8591 1.373 1.0709 2.7494 1.8329 4.5823 1.8329 1.8329 0 3.3602-0.76203 4.5823-1.8329 2.2927-1.8329 3.5147-5.0388 3.5147-8.8591 0-3.6659-1.2219-7.0261-3.5147-8.8591m-1.9873 8.8591c0 3.8201 0 6.875-0.61097 8.4024-0.45655 0.76203-0.91645 1.2219-1.984 1.2219-0.91645 0-1.5274-0.4599-1.8329-1.2219-0.76539-1.5274-0.76539-4.5823-0.76539-8.4024 0-3.6659 0-6.875 0.76539-8.4024 0.30548-0.76203 0.91645-1.2219 1.8329-1.2219 1.0675 0 1.5274 0.4599 1.984 1.2219 0.76539 1.5274 0.61097 4.7368 0.61097 8.4024"/><path d="m87.84 32.995v5.4987h-1.0709c-0.61097-2.2895-1.5274-4.2769-3.9712-4.4278-1.5274-0.15442-2.9003 0.76203-3.0548 2.1384-0.15106 1.373 0.30548 2.5949 3.0548 4.1224 3.5147 1.9873 6.2642 2.9037 6.2642 7.0261 0 4.4312-3.8201 6.5696-7.0261 6.5696h-6.1097v-7.6371h1.0675c0.76539 3.9712 1.9873 6.4151 4.8877 6.5696 1.8329 0 3.2093-1.0709 3.2093-3.0548 0-1.9873-1.2219-3.2094-4.1258-4.8911-3.206-1.984-5.1933-3.206-5.1933-5.9552 0-3.6693 2.5983-5.9586 6.7207-5.9586z"/><path d="m94.562 25.206v-14.818c0-4.2769-2.2927-6.2642-5.6532-6.1097-2.2895 0.15107-3.6659 1.6818-4.2769 2.9003-0.76203-2.1384-2.4438-3.0548-4.8877-2.9003-1.984 0.15107-3.5113 1.373-4.1258 2.7494v-2.2927h-4.7334v20.471h5.1933v-15.429c0-1.5274 0.15442-2.4438 1.0709-3.2093 0.61097-0.45655 1.2219-0.60762 1.6785-0.45655 1.2219 0.30548 1.2219 1.8329 1.2219 3.6659v15.429h5.1933v-15.58c0-1.3764 0.30548-2.2927 1.0709-3.0582 0.61097-0.45655 1.2219-0.60762 1.6785-0.45655 1.2219 0.30548 1.3764 1.8329 1.3764 3.6659v15.429z"/><path d="m41.553 0.4599h5.3476v24.749h-5.3476z"/><path d="m65.844 25.206v-24.749h-5.3476v5.8043c-0.45655-1.0675-1.5274-1.8329-3.0548-1.8329-3.817 0-6.875 3.9712-7.0261 10.084-0.15442 4.1224 1.2219 10.997 6.5696 10.997 2.1384 0 3.3602-1.2219 3.817-2.2927v1.9873zm-6.2642-18.789c1.0709 1.5274 1.0709 5.1933 1.0709 8.097 0 3.0548 0.15107 7.0261-1.0709 8.7046-0.45655 0.61097-0.91645 0.9198-1.6785 0.9198-1.0709 0-1.6818-1.2219-1.9873-3.2094-0.15107-1.8329-0.15107-4.1258-0.15107-6.5696 0-4.1224 0.30548-8.708 2.2895-8.708 0.76539 0 1.0709 0.30884 1.5274 0.76539"/><path d="m110.45 5.3466c1.3764 0.76539 2.2927 1.9873 2.2927 4.7368v15.123h-5.0422v-2.2927c-0.61097 1.6818-2.2927 2.7494-4.5823 2.7494-1.8329 0-5.0422-0.91645-5.0422-5.6532 0-4.4278 2.9037-5.3444 6.1097-6.7207 2.9037-1.2219 3.2093-1.373 3.2093-2.5949v-3.3602c0-1.3764-0.76538-1.9873-2.2927-1.9873-0.60762 0.15107-1.6785 0.45655-1.6785 1.2219-0.15442 0.91645 0.91646 0.91645 1.0709 2.2927 0.15107 2.1384-1.5308 2.9003-3.0582 2.7494-1.0675 0-2.2895-0.61097-2.4438-2.2927-0.15106-2.7494 2.9037-5.0422 7.1806-5.0422 1.9873 0 3.2094 0.4599 4.2769 1.0709m-3.0548 7.6371-1.6818 1.0709c-1.6785 1.0675-1.984 2.4438-2.1384 3.9712-0.15106 1.2219-0.15106 2.2895 0 4.1258 0.15442 1.6785 1.2219 1.984 2.1384 1.6785 1.0709-0.45655 1.6818-2.4438 1.6818-4.5823z"/><path d="m34.834 33.913c1.3764 0.91645 2.1384 1.984 2.1384 4.7334v15.278h-4.8877v-2.2927c-0.61097 1.5274-2.2927 2.5983-4.5823 2.5983-1.9873 0-5.0422-0.76539-5.0422-5.4987 0-4.4311 2.9037-5.3476 5.9586-6.7207 3.0548-1.3764 3.3602-1.5274 3.3602-2.5983v-3.3602c0-1.5274-0.76539-2.1384-2.2927-1.9873-0.61097 0-1.6785 0.30548-1.6785 1.0709-0.15442 1.0709 0.91645 1.0709 1.0675 2.4438 0.15442 1.9873-1.5274 2.7494-3.0548 2.7494-1.0675-0.15107-2.2895-0.76203-2.4438-2.4438-0.15107-2.5983 2.9037-4.8877 7.1806-4.8877 1.984 0 3.206 0.30548 4.2769 0.91645m-3.0548 7.6371-1.6818 1.0709c-1.6785 1.0675-1.984 2.4438-2.1384 3.9712-0.15107 1.2219-0.15107 2.4438 0 4.1224 0 1.8363 1.0709 2.1417 1.9873 1.6818 1.2219-0.4599 1.8329-2.2927 1.8329-4.5823z"/><path d="m71.8 39.105c0-4.2769-2.2927-6.4151-5.6532-6.1097-1.6785 0.15107-3.0548 0.91645-3.817 1.984v-5.9552h-5.1967v14.052c0 5.1933-3.6659 10.081-7.3317 9.9298-2.5949 0-3.206-1.9873-3.5113-4.1258-0.4599-3.0548-0.4599-6.5662-0.15442-10.387 0.30548-2.4438 0.91645-4.4311 2.7494-4.4311 1.3764 0 1.5274 0.91645 0.91645 1.5274-0.61097 0.76539-1.5274 1.5274-1.0675 3.2093 0.45655 1.8329 3.3602 2.1384 4.7334 0.76539 1.0709-1.2219 0.91645-3.2094 0.15442-4.4312-0.91645-1.5274-2.4438-2.1384-4.7368-2.1384-2.9003 0-8.3992 2.5949-8.3992 10.846 0 8.8591 5.6498 10.387 8.8591 10.387 3.6659 0 6.8718-3.2093 7.7882-5.8043v5.4987h5.1967v-15.429c0-1.5274 0.30548-2.4438 1.0675-3.2093 0.61097-0.45655 1.3764-0.61097 1.8329-0.45655 1.2219 0.30548 1.2219 1.8329 1.2219 3.6659v15.429h5.3476z"/><path d="m18.336 0v8.708h-1.0709c-0.91645-4.2769-2.9003-7.486-5.6498-7.6371-1.8329-0.15442-2.9037 0.91645-3.8201 2.4438-0.91645 1.8329-1.373 5.6498-1.373 10.232 0 4.28 0.15106 7.486 0.61097 9.7789 0.30548 1.0675 1.0675 2.7494 3.0548 2.7494 1.0675 0 1.8329-0.30548 2.2895-0.91645 0.76539-0.91645 0.91645-2.7494 0.91645-3.9712v-4.1258c0-1.5274-0.45655-2.4438-1.2219-2.9003-0.61097-0.30884-1.5274-0.30884-1.984-0.4599v-1.0709h8.5535v21.847h-1.0709c-0.45655-1.6818-0.76203-2.9037-1.5274-4.28-0.76203-1.373-2.1384-2.9003-4.4278-2.9003-2.4438-0.15442-4.2769 1.3764-4.2769 3.6659 0 3.0548 1.8329 3.8201 5.1933 5.6532 3.2094 1.8329 7.3317 3.3602 7.3317 8.7046 0 5.1967-4.4311 8.4024-9.4699 8.4024h-8.097v-10.541h1.0709c1.373 7.9459 4.7334 9.319 7.0261 9.319 2.9003 0 4.2769-1.8329 4.2769-4.4278-0.15442-3.3636-2.4438-4.5857-5.6532-6.2642-4.5823-2.5983-6.7207-3.8201-6.7207-8.097 0.15442-3.6659 3.0548-5.9586 6.2642-6.875-6.7207-0.76203-8.708-6.8718-8.5535-13.441 0-6.5696 3.817-13.596 11.303-13.596z"/></g></svg>
